<?xml version="1.0" encoding="UTF-8" standalone="no"?>
<svg
   xmlns:dc="http://purl.org/dc/elements/1.1/"
   xmlns:cc="http://web.resource.org/cc/"
   xmlns:rdf="http://www.w3.org/1999/02/22-rdf-syntax-ns#"
   xmlns:svg="http://www.w3.org/2000/svg"
   xmlns="http://www.w3.org/2000/svg"
   xmlns:xlink="http://www.w3.org/1999/xlink"
   width="10cm" height="12cm" viewBox="0 0 800 960"
   id="BogotaCoA" version="1.1">
<defs>
    <style type="text/css"><![CDATA[
      path.azur  { fill: #00A; }
      path.oro   { fill: #FD0; }
      path.gules { fill: #D00; }
      path.sable { fill: #000; }
    ]]></style>
  </defs>
  <path id="boca" class="azur"
     d="M 400,960 C 337,920 261,896 153,899 C 65,897 0,813 0,726 L 0,0 C 122,67 277,67 400,1 C 523,67 678,67 800,0 L 800,726 C 800,813 735,897 647,899 C 539,896 463,920 400,960 z " />
  <path id="campo" class="oro"
     d="M 400,793 C 445,765 500,755 555,755 C 610,755 652,702 652,647 L 652,180 C 610,200 560,190 513,190 C 475,190 440,180 400,160 C 360,180 325,190 287,190 C 240,190 190,200 148,180 L 148,647 C 148,702 190,755 245,755 C 300,755 355,765 400,793 z " />
  <path id="g1" class="oro"
     d="M 437,902 C 462,901 472,887 478,863 C 487,864 499,871 506,875 L 522,861 C 496,847 467,846 455,848 C 442,850 425,860 409,856 C 415,843 422,824 404,819 C 404,831 401,848 395,853 C 396,832 388,809 366,806 C 353,804 331,813 324,843 C 317,873 339,895 357,894 C 372,894 385,884 393,862 C 395,873 393,881 386,897 C 392,900 408,897 407,869 C 424,872 447,863 457,862 C 443,870 437,890 437,902 z M 358,870 C 345,868 324,855 326,844 C 328,833 351,829 364,832 C 388,837 394,850 389,859 C 384,869 373,872 358,870 z M 303,862 C 303,858 309,845 319,847 C 322,845 322,837 321,836 C 314,832 310,824 312,815 C 305,810 302,824 304,831 C 299,831 293,831 287,834 C 291,839 296,842 302,844 C 296,850 297,864 303,862 z " />
  <use id="g2" xlink:href="#g1" transform="matrix(0.707107,0.707107,-0.707107,0.707107,444,-116)" />
  <use id="g3" xlink:href="#g1" transform="matrix(0.139173,0.990268,-0.990268,0.139173,863,-25)" />
  <use id="g4" xlink:href="#g1" transform="matrix(0.139173,0.990268,-0.990268,0.139173,863,-326)" />
  <use id="g5" xlink:href="#g1" transform="matrix(-0.97437,0.224951,-0.224951,-0.97437,852,853)" />
  <use id="g6" xlink:href="#g1" transform="matrix(0.97437,0.224951,0.224951,-0.97437,-51,855)" />
  <use id="g7" xlink:href="#g1" transform="matrix(-0.139173,0.990268,0.990268,0.139173,-64,-325)" />
  <use id="g8" xlink:href="#g1" transform="matrix(-0.139173,0.990268,0.990268,0.139173,-65,-26)" />
  <use id="g9" xlink:href="#g1" transform="matrix(-0.707107,0.707107,0.707107,0.707107,354,-116)" />
  <path id="gr" class="gules"
     d="M 300,739 L 277,737 C 277,701 272,684 261,670 C 251,657 242,646 234,637 C 228,645 212,668 193,647 C 203,643 217,637 227,625 C 200,638 174,631 166,609 C 159,586 178,563 198,554 C 216,544 244,546 253,567 C 262,586 251,609 235,621 C 249,621 259,610 269,602 C 276,613 268,626 250,632 C 262,641 273,655 279,664 C 285,673 296,701 300,739 z M 225,622 C 240,618 240,598 233,587 C 225,574 214,558 198,558 C 180,557 184,584 190,595 C 196,608 209,626 225,622 z M 337,653 C 338,684 316,704 295,702 C 294,675 314,654 337,653 z M 182,559 C 175,550 163,553 158,558 C 154,553 165,544 172,543 C 170,534 168,530 169,525 C 175,526 180,530 185,535 C 191,525 202,526 203,529 C 195,533 190,543 193,552 C 192,555 187,559 182,559 z " />
  <use id="gl" xlink:href="#gr" transform="matrix(-1 0 0 1 800 0)" />
  <path id="aguila" class="sable"
     d="M 400,775 C 378,739 366,704 382,671 C 372,670 363,677 358,685 C 353,650 362,625 376,605 C 367,606 351,617 342,628 L 338,612 C 301,638 296,637 281,651 L 281,653 C 287,661 276,665 268,668 C 269,671 275,673 279,674 C 270,689 254,685 248,678 C 242,680 235,675 235,663 C 225,656 239,626 269,637 C 275,634 296,609 315,589 L 299,584 C 308,567 338,546 359,537 C 387,525 378,506 361,518 C 339,535 316,543 284,528 C 302,521 323,498 326,483 C 294,503 247,503 219,477 C 247,482 274,468 294,450 C 256,460 212,444 187,414 C 215,413 242,404 268,395 C 222,394 180,371 164,321 C 184,332 228,335 256,331 C 201,309 169,264 168,212 C 182,232 236,258 289,276 C 319,286 329,323 329,337 C 329,352 374,371 374,319 C 374,310 375,289 376,283 C 366,277 350,279 344,281 C 343,258 344,240 369,240 L 409,240 C 436,240 430,289 428,319 C 428,371 473,352 473,337 C 473,323 483,286 513,276 C 566,258 620,232 634,212 C 633,264 601,309 544,331 C 572,335 616,332 636,321 C 620,371 578,394 532,395 C 558,404 585,413 613,414 C 588,444 544,460 506,450 C 526,468 553,482 581,477 C 553,503 506,503 474,483 C 477,498 498,521 516,528 C 484,543 461,535 439,518 C 422,506 413,525 441,537 C 462,546 492,567 501,584 L 485,589 C 504,609 525,634 531,637 C 561,626 575,656 565,663 C 565,675 558,680 552,678 C 546,685 530,689 521,674 C 525,673 531,671 532,668 C 524,665 513,661 519,653 L 519,651 C 504,637 499,638 462,612 L 458,628 C 449,617 433,606 424,605 C 438,625 447,650 442,685 C 437,677 428,670 418,671 C 434,704 422,739 400,775 z M 386,271 C 398,271 398,252 386,252 C 374,252 374,271 386,271 z M 357,200 L 389,211 L 400,181 L 411,211 L 443,199 L 422,230 L 378,231 L 357,200 z " />
</svg>
